# xmcd
#
# Track frame offsets: 
#        150
#        24781
#        37411
#        49719
#        66020
#        82779
#        99215
#        116885
#        132064
#        143979
#        159659
#        177029
#        187950
#        202829
#
# Disc length: 2902 seconds
#
# Revision: 0
# Processed by: cddbd v1.5.2PL0 Copyright (c) Steve Scherf et al.
# Submitted via: ExactAudioCopy v0.95b3
#
DISCID=af0b540e
DTITLE=Speedwolf - Ride With Death [IUCP-16142]
DYEAR=2011
DGENRE=Heavy Metal
TTITLE0=Speedwolf
TTITLE1=Up All Night
TTITLE2=Out On Bail
TTITLE3=I Am The Demon
TTITLE4=Time To Annihilate
TTITLE5=Never Twice
TTITLE6=I Can't Die
TTITLE7=Death Ripper
TTITLE8=Hell and Back
TTITLE9=The Reaper
TTITLE10=Ride With Death
TTITLE11=Denver 666
TTITLE12=Up All Night (Live)
TTITLE13=Denver 666 (Live)
EXTD=
EXTT0=
EXTT1=
EXTT2=
EXTT3=
EXTT4=
EXTT5=
EXTT6=
EXTT7=
EXTT8=
EXTT9=
EXTT10=
EXTT11=
EXTT12=
EXTT13=
PLAYORDER=
